<?xml version="1.0" standalone="no"?>
<!DOCTYPE svg PUBLIC "-//W3C//DTD SVG 20010904//EN"
 "http://www.w3.org/TR/2001/REC-SVG-20010904/DTD/svg10.dtd">
<svg version="1.0" xmlns="http://www.w3.org/2000/svg"
 width="600.000000pt" height="600.000000pt" viewBox="0 0 600.000000 600.000000"
 preserveAspectRatio="xMidYMid meet">

<g transform="translate(0.000000,600.000000) scale(0.100000,-0.100000)"
fill="#000000" stroke="none">
<path d="M2774 4256 c-139 -32 -273 -110 -359 -208 -116 -133 -147 -343 -77
-521 36 -92 118 -205 191 -262 28 -22 50 -43 51 -46 0 -3 -48 -5 -106 -6
l-106 0 -35 48 c-21 29 -43 49 -54 49 -27 0 -25 -9 25 -102 l45 -83 217 -3
c120 -1 221 1 226 6 5 5 -34 51 -85 103 -159 160 -227 307 -227 493 0 55 6
114 16 147 58 196 210 325 400 337 227 14 403 -115 469 -343 25 -86 17 -256
-17 -347 -39 -104 -109 -206 -203 -296 -47 -46 -85 -87 -85 -92 0 -6 85 -10
224 -10 l225 0 45 84 c51 93 55 106 27 106 -12 0 -30 -17 -47 -45 -25 -38 -35
-45 -69 -50 -45 -6 -185 -3 -185 5 0 3 19 19 42 35 53 39 155 166 184 230 73
158 72 332 -2 478 -35 69 -143 175 -224 219 -105 58 -188 80 -325 84 -80 2
-141 -1 -181 -10z"/>
<path d="M4813 2647 c-68 -133 -177 -347 -243 -476 -66 -129 -120 -236 -120
-238 0 -2 35 -3 78 -1 l77 3 48 93 48 92 242 0 242 0 48 -95 47 -95 75 0 c41
0 75 3 75 6 0 7 -455 906 -474 937 -6 9 -13 17 -16 17 -3 0 -60 -109 -127
-243z m215 -220 c45 -89 82 -165 82 -168 0 -4 -77 -7 -171 -8 -94 -1 -169 2
-167 6 17 42 164 332 168 332 3 0 42 -72 88 -162z"/>
<path d="M955 2858 c-115 -22 -248 -113 -313 -216 -65 -101 -89 -242 -61 -361
38 -165 183 -311 354 -356 270 -70 545 118 584 398 34 251 -128 480 -377 533
-75 15 -115 16 -187 2z m236 -156 c74 -36 125 -87 161 -160 30 -60 33 -76 33
-152 0 -76 -3 -92 -33 -152 -36 -73 -87 -124 -161 -160 -39 -19 -62 -23 -146
-23 -85 0 -106 4 -143 23 -67 35 -129 98 -159 161 -25 49 -28 67 -28 151 0 76
4 104 21 141 39 83 115 153 203 186 56 21 195 12 252 -15z"/>
<path d="M2261 2561 c-81 -189 -137 -308 -141 -300 -4 8 -63 145 -131 304
-136 320 -127 300 -134 294 -3 -4 -273 -843 -292 -911 -5 -16 3 -18 69 -18
l73 0 78 258 c43 141 81 265 85 275 5 13 42 -62 131 -268 69 -157 128 -282
131 -278 4 4 61 133 126 287 65 153 120 272 123 265 2 -8 42 -131 87 -274 l82
-260 72 -3 72 -3 -6 28 c-7 27 -59 192 -218 688 l-74 229 -133 -313z"/>
<path d="M3884 2855 c-222 -48 -374 -237 -374 -464 0 -137 45 -248 139 -341
164 -164 417 -185 609 -50 122 85 202 230 202 367 l0 53 -235 0 -235 0 0 -65
0 -65 161 0 160 0 -6 -22 c-20 -66 -91 -144 -170 -186 -45 -24 -61 -27 -150
-27 -118 0 -171 20 -243 93 -68 67 -96 139 -96 243 0 74 4 93 29 144 15 32 48
79 72 103 60 60 120 85 218 90 105 5 178 -21 252 -91 l52 -49 51 37 c27 20 50
40 50 44 0 18 -120 121 -169 146 -58 29 -165 55 -221 54 -19 0 -62 -7 -96 -14z"/>
<path d="M2810 2390 l0 -460 280 0 281 0 -3 68 -3 67 -207 3 -208 2 0 125 0
125 201 2 201 3 0 65 0 65 -201 3 -201 2 0 128 0 127 207 0 208 0 3 68 3 67
-281 0 -280 0 0 -460z"/>
</g>
</svg>
