<?xml version="1.0" standalone="no"?>
<!DOCTYPE svg PUBLIC "-//W3C//DTD SVG 20010904//EN"
 "http://www.w3.org/TR/2001/REC-SVG-20010904/DTD/svg10.dtd">
<svg version="1.0" xmlns="http://www.w3.org/2000/svg"
 width="500.000000pt" height="500.000000pt" viewBox="0 0 500.000000 500.000000"
 preserveAspectRatio="xMidYMid meet">

<g transform="translate(0.000000,500.000000) scale(0.100000,-0.100000)"
fill="#000000" stroke="none">
<path d="M2412 3011 c-101 -35 -161 -119 -162 -224 0 -97 47 -173 135 -220 59
-31 190 -30 263 2 l52 23 0 99 0 99 -55 0 -54 0 -3 -62 -3 -63 -37 -9 c-83
-21 -156 32 -165 117 -12 117 122 189 219 117 l30 -22 36 33 c20 19 39 35 42
37 13 9 -65 63 -111 76 -68 21 -122 20 -187 -3z"/>
<path d="M670 2785 l0 -235 65 0 64 0 3 115 3 115 55 -90 c51 -83 57 -90 87
-90 30 0 36 7 90 97 l58 97 3 -122 3 -122 59 0 60 0 0 235 0 235 -54 0 -55 0
-78 -130 c-43 -71 -81 -130 -85 -130 -4 0 -42 59 -85 130 l-78 130 -57 0 -58
0 0 -235z"/>
<path d="M1370 2784 l0 -236 158 4 c150 3 159 5 207 31 96 54 137 146 114 256
-9 46 -20 65 -58 102 -64 65 -117 79 -288 79 l-133 0 0 -236z m290 111 c59
-30 78 -120 40 -183 -25 -41 -54 -52 -136 -52 l-64 0 0 125 0 125 65 0 c39 0
78 -6 95 -15z"/>
<path d="M1990 2785 l0 -235 65 0 65 0 0 235 0 235 -65 0 -65 0 0 -235z"/>
<path d="M2850 2785 l0 -235 65 0 65 0 0 235 0 235 -65 0 -65 0 0 -235z"/>
<path d="M3090 2965 l0 -55 70 0 70 0 0 -180 0 -180 65 0 65 0 0 180 0 179 73
3 72 3 3 53 3 52 -210 0 -211 0 0 -55z"/>
<path d="M3762 3003 c-8 -15 -116 -257 -183 -410 l-18 -43 68 0 68 0 17 45 18
45 99 0 100 0 19 -45 19 -45 66 0 c36 0 65 3 65 8 0 4 -45 108 -100 232 l-99
225 -65 3 c-54 2 -66 0 -74 -15z m102 -192 c14 -36 26 -66 26 -68 0 -2 -27 -3
-59 -3 l-60 0 15 35 c7 19 21 51 29 72 8 20 17 34 19 32 2 -2 16 -33 30 -68z"/>
<path d="M4200 2785 l0 -235 180 0 180 0 0 55 0 55 -110 0 -110 0 0 180 0 180
-70 0 -70 0 0 -235z"/>
<path d="M630 2390 l0 -60 740 0 740 0 0 60 0 60 -740 0 -740 0 0 -60z"/>
</g>
</svg>
